<svg xmlns="http://www.w3.org/2000/svg" xmlns:xlink="http://www.w3.org/1999/xlink" width="500" zoomAndPan="magnify" viewBox="0 0 375 374.999991" height="500" preserveAspectRatio="xMidYMid meet" version="1.0"><defs><g/><clipPath id="9aefba8d16"><path d="M 83.710938 137 L 291.460938 137 L 291.460938 242.960938 L 83.710938 242.960938 Z M 83.710938 137 " clip-rule="nonzero"/></clipPath></defs><g clip-path="url(#9aefba8d16)"><path fill="#19447d" d="M 183.132812 138.433594 C 178.347656 139.5 171.96875 141.699219 170.296875 142.914062 C 169.691406 143.371094 167.867188 144.433594 166.273438 145.191406 C 163.085938 146.789062 152.910156 157.039062 151.085938 160.53125 C 145.089844 171.847656 143.417969 177.691406 143.34375 187.410156 C 143.34375 193.335938 143.644531 196.449219 144.710938 199.484375 C 146.378906 204.34375 146.074219 204.800781 139.847656 206.773438 C 129.675781 210.039062 121.246094 211.710938 111.601562 212.621094 C 105.832031 213.152344 101.125 213.835938 101.125 214.140625 C 101.125 215.28125 113.347656 214.75 121.472656 213.230469 C 134.230469 210.800781 145.390625 207.078125 154.65625 202.066406 C 163.007812 197.585938 163.769531 197.132812 169.082031 193.03125 C 176.675781 187.261719 185.410156 182.476562 191.179688 180.882812 C 197.101562 179.289062 200.824219 179.96875 207.203125 183.84375 C 211.910156 186.652344 213.199219 188.398438 213.960938 192.878906 L 214.492188 196.144531 L 212.667969 194.855469 C 206.519531 190.449219 197.558594 190.144531 192.699219 194.246094 C 188.144531 198.117188 187.078125 206.625 190.34375 212.925781 C 195.738281 223.328125 207.050781 226.820312 223.753906 223.175781 C 232.335938 221.355469 239.929688 219.304688 241.449219 218.542969 C 243.800781 217.253906 253.371094 214.898438 259.824219 213.988281 C 265.824219 213.152344 276.984375 213.304688 287.84375 214.445312 L 291.261719 214.824219 L 288.601562 213.535156 C 284.65625 211.558594 258.230469 211.636719 252.15625 213.535156 C 249.875 214.292969 246.082031 215.429688 243.800781 216.113281 C 241.523438 216.796875 238.183594 217.863281 236.359375 218.46875 C 232.640625 219.757812 231.347656 219.226562 233.628906 217.328125 C 235.675781 215.660156 239.625 207.914062 241.523438 201.914062 C 242.664062 198.195312 243.042969 194.929688 243.042969 187.867188 C 243.042969 177.464844 242.207031 173.742188 237.878906 164.785156 C 234.691406 158.328125 225.425781 147.925781 220.566406 145.421875 C 218.972656 144.585938 217.148438 143.523438 216.542969 143.066406 C 214.949219 141.851562 207.050781 139.195312 202.265625 138.207031 C 197.253906 137.144531 188.597656 137.21875 183.132812 138.433594 M 204.242188 140.257812 C 220.414062 144.128906 232.714844 155.140625 239.472656 171.847656 C 241.144531 175.945312 241.296875 177.539062 241.296875 187.410156 C 241.296875 197.207031 241.070312 198.953125 239.472656 202.976562 C 236.589844 210.34375 234.613281 213.835938 231.425781 217.328125 C 227.703125 221.355469 223.984375 222.339844 212.441406 222.339844 C 203.179688 222.339844 199.53125 221.125 195.203125 216.570312 C 192.015625 213.152344 189.207031 207.761719 189.207031 204.953125 C 189.207031 202.144531 192.242188 196.601562 194.75 194.703125 C 196.417969 193.488281 198.015625 193.105469 201.964844 193.105469 C 206.292969 193.105469 207.507812 193.410156 210.085938 195.234375 C 211.757812 196.371094 213.734375 197.359375 214.414062 197.359375 C 216.617188 197.359375 216.921875 193.867188 215.023438 189.84375 C 213.199219 185.96875 210.316406 183.234375 205 180.503906 C 199.078125 177.390625 188.445312 178.527344 181.613281 182.933594 C 181.003906 183.3125 179.789062 183.996094 178.953125 184.375 C 178.121094 184.753906 174.550781 187.183594 170.980469 189.691406 C 160.351562 197.433594 150.480469 203.359375 148.277344 203.359375 C 146.605469 203.359375 145.695312 197.207031 145.695312 187.03125 C 145.773438 177.539062 145.925781 175.871094 147.671875 171.464844 C 150.632812 163.949219 154.050781 158.785156 160.277344 152.632812 C 171.816406 141.167969 188.445312 136.460938 204.242188 140.257812 M 161.1875 205.332031 C 158.453125 206.394531 152.984375 208.445312 149.039062 209.886719 C 145.089844 211.40625 141.140625 212.925781 140.304688 213.304688 C 139.46875 213.683594 135.21875 214.671875 130.8125 215.582031 C 124.511719 216.796875 118.738281 217.253906 103.324219 217.632812 C 92.542969 217.863281 83.734375 218.316406 83.734375 218.621094 C 83.734375 220.671875 111.375 220.367188 124.738281 218.242188 C 135.824219 216.496094 140.378906 215.203125 151.316406 210.875 C 163.3125 206.167969 167.640625 204.875 171.511719 204.875 C 175.613281 204.875 179.636719 206.546875 181.15625 208.976562 C 182.449219 210.875 182.371094 210.875 180.472656 210.117188 C 174.777344 207.914062 167.640625 211.101562 163.617188 217.632812 C 160.046875 223.480469 162.097656 233.351562 167.792969 237.148438 C 173.335938 240.871094 175.691406 241.476562 185.105469 241.476562 C 195.355469 241.550781 197.332031 241.019531 213.582031 234.566406 C 218.820312 232.441406 223.90625 230.617188 224.894531 230.542969 C 225.882812 230.390625 226.867188 229.78125 227.097656 229.25 C 227.402344 228.417969 226.945312 228.339844 225.273438 228.71875 C 224.058594 229.023438 220.1875 229.554688 216.542969 229.933594 C 212.898438 230.316406 207.808594 230.996094 205.152344 231.453125 C 195.054688 233.125 185.789062 232.136719 180.320312 228.871094 C 177.132812 226.972656 174.246094 222.570312 173.640625 218.621094 C 173.109375 215.429688 171.816406 214.367188 171.816406 217.101562 C 171.816406 223.175781 177.207031 230.164062 183.664062 232.441406 C 188.675781 234.1875 203.027344 234.261719 209.480469 232.515625 C 211.984375 231.832031 214.871094 231.148438 215.933594 230.921875 C 218.894531 230.316406 216.847656 231.910156 212.898438 233.277344 C 211 233.960938 207.050781 235.324219 204.164062 236.464844 C 192.320312 240.945312 183.964844 241.703125 175.460938 239.046875 C 167.183594 236.464844 162.855469 230.542969 163.84375 223.253906 C 164.375 219.226562 166.578125 215.660156 169.996094 213.382812 C 171.894531 212.089844 173.488281 211.710938 177.816406 211.710938 C 180.777344 211.710938 183.433594 211.40625 183.585938 211.101562 C 184.195312 210.191406 181.460938 206.394531 179.03125 204.800781 C 175.691406 202.675781 167.566406 202.976562 161.1875 205.332031 M 134.6875 218.621094 C 132.332031 219.53125 117.90625 221.582031 113.652344 221.582031 C 111.90625 221.582031 110.160156 221.960938 109.855469 222.417969 C 108.488281 224.621094 137.117188 220.898438 139.394531 218.542969 C 140.457031 217.558594 137.265625 217.558594 134.6875 218.621094 M 252.6875 219.757812 C 245.015625 221.277344 240.308594 222.644531 239.246094 223.707031 C 238.5625 224.390625 238.714844 224.621094 240.082031 224.621094 C 240.992188 224.621094 242.433594 224.316406 243.117188 223.9375 C 245.625 222.570312 259.75 220.0625 264.761719 220.0625 C 267.570312 220.0625 269.773438 219.757812 269.773438 219.304688 C 269.769531 218.242188 259.066406 218.542969 252.6875 219.757812 M 241.144531 227.277344 C 238.105469 228.265625 230.816406 231.226562 224.820312 233.960938 C 218.820312 236.691406 211.757812 239.503906 209.023438 240.261719 C 204.011719 241.628906 201.582031 242.84375 203.9375 242.84375 C 207.960938 242.84375 216.164062 240.035156 226.1875 235.175781 C 234.234375 231.300781 243.195312 228.035156 247.980469 227.277344 C 249.574219 227.050781 250.636719 226.441406 250.410156 226.0625 C 249.726562 225.074219 247.21875 225.378906 241.144531 227.277344 " fill-opacity="1" fill-rule="nonzero"/></g><g fill="#19447d" fill-opacity="1"><g transform="translate(145.145329, 251.67525)"><g><path d="M 3.6875 -5.984375 C 1.84375 -2.390625 2.8125 1.640625 6.625 3.578125 C 13.078125 6.875 16.296875 1.84375 13.71875 0.515625 C 11.453125 -0.640625 10.59375 3.890625 7.859375 2.5 C 6.015625 1.5625 6.59375 -1.21875 7.921875 -3.8125 C 9.234375 -6.40625 11.15625 -8.390625 12.90625 -7.484375 C 15.359375 -6.234375 14.109375 -3.203125 15.5625 -2.453125 C 16.75 -1.859375 16.84375 -4.15625 17.109375 -6.703125 C 17.140625 -7.046875 16.96875 -7.25 16.703125 -7.390625 C 16.3125 -7.59375 15.71875 -7.6875 15.15625 -7.984375 C 14.40625 -8.375 14.140625 -8.703125 13.15625 -9.203125 C 9.5 -11.0625 5.515625 -9.578125 3.6875 -5.984375 Z M 3.6875 -5.984375 "/></g></g></g><g fill="#19447d" fill-opacity="1"><g transform="translate(158.708399, 258.286572)"><g><path d="M 3.265625 1.171875 C 3.796875 1.359375 4.53125 1.796875 5.1875 2.046875 C 5.765625 2.25 6.28125 2.296875 6.46875 1.765625 C 6.75 1 5.71875 1.015625 6.609375 -1.453125 L 10.328125 -11.796875 C 10.59375 -12.5625 10.6875 -13.25 10.0625 -13.484375 C 9.359375 -13.734375 9.40625 -13.125 7.5 -13.125 C 5.96875 -13.125 5.203125 -13.5625 4.921875 -12.765625 C 4.6875 -12.09375 5.625 -11.9375 5.125 -10.53125 C 4.890625 -9.90625 3.234375 -5.375 2.375 -2.96875 C 1.484375 -0.5 0.71875 -1.171875 0.4375 -0.40625 C 0.25 0.125 0.640625 0.40625 1.265625 0.625 C 1.890625 0.859375 2.734375 0.984375 3.265625 1.171875 Z M 3.265625 1.171875 "/></g></g></g><g fill="#19447d" fill-opacity="1"><g transform="translate(165.87411, 260.995217)"><g><path d="M 6.546875 1.6875 C 9.328125 2.34375 12.046875 1.703125 12.484375 -0.15625 C 12.59375 -0.609375 12.390625 -1.15625 11.78125 -1.3125 C 10.40625 -1.625 9.921875 0.75 7.265625 0.140625 C 5.4375 -0.28125 5.828125 -2.09375 6.875 -1.859375 C 9.609375 -1.21875 12.796875 -1.671875 13.4375 -4.421875 C 13.75 -5.75 13.421875 -8.5625 8.921875 -9.609375 C 5.453125 -10.40625 2.59375 -8.6875 1.8125 -5.3125 C 0.875 -1.328125 3.65625 1.03125 6.546875 1.6875 Z M 8.609375 -8.21875 C 9.375 -8.03125 9.625 -6.9375 9.265625 -5.40625 C 8.921875 -3.875 8.203125 -3 7.4375 -3.1875 C 6.671875 -3.359375 6.40625 -4.453125 6.75 -5.984375 C 7.109375 -7.515625 7.84375 -8.390625 8.609375 -8.21875 Z M 8.609375 -8.21875 "/></g></g></g><g fill="#19447d" fill-opacity="1"><g transform="translate(179.125787, 264.018901)"><g><path d="M 3.609375 0.4375 C 5.40625 0.5625 6.65625 -0.875 7.28125 -0.828125 C 7.5 -0.8125 7.625 -0.625 7.640625 -0.046875 C 7.65625 0.5625 8.171875 0.8125 8.78125 0.78125 C 9.265625 0.75 9.6875 0.703125 10.265625 0.75 C 10.828125 0.78125 11.546875 1.015625 12.109375 1.046875 C 12.609375 1.09375 13.015625 0.96875 13.046875 0.40625 C 13.109375 -0.40625 12.140625 -0.109375 12.328125 -2.71875 L 12.5 -5.21875 C 12.796875 -9.171875 10.40625 -10.640625 7.34375 -10.875 C 4.484375 -11.078125 1.890625 -10.21875 1.75 -8.328125 C 1.703125 -7.6875 2.21875 -7.140625 2.859375 -7.09375 C 4.75 -6.953125 5.015625 -9.59375 7.0625 -9.453125 C 8.0625 -9.375 8.390625 -8.765625 8.359375 -8.296875 C 8.3125 -7.6875 7.578125 -7.25 6.125 -7.046875 C 3.109375 -6.625 0.953125 -5.390625 0.78125 -2.90625 C 0.65625 -1.1875 1.53125 0.28125 3.609375 0.4375 Z M 5.1875 -3.734375 C 5.28125 -5.109375 6.484375 -5.421875 7.4375 -5.84375 C 7.90625 -6.015625 8.15625 -5.859375 8.125 -5.390625 L 8.015625 -4.046875 C 7.9375 -2.953125 7.375 -2.09375 6.4375 -2.15625 C 5.6875 -2.203125 5.109375 -2.65625 5.1875 -3.734375 Z M 5.1875 -3.734375 "/></g></g></g><g fill="#19447d" fill-opacity="1"><g transform="translate(193.385157, 265.01197)"><g><path d="M 0.234375 -0.5625 C 0.28125 0 0.765625 0.109375 1.421875 0.046875 C 2.078125 -0.015625 2.890625 -0.265625 3.453125 -0.3125 C 4.015625 -0.375 4.875 -0.28125 5.5625 -0.34375 C 6.171875 -0.390625 6.65625 -0.578125 6.609375 -1.140625 C 6.53125 -1.953125 5.609375 -1.515625 5.375 -4.125 L 5.25 -5.46875 C 5 -8.171875 5.5 -8.859375 6.375 -8.9375 C 7.34375 -9.03125 7.75 -8.109375 7.90625 -6.328125 L 8.328125 -1.765625 C 8.40625 -1 8.9375 -0.609375 9.6875 -0.75 C 10.140625 -0.859375 10.53125 -0.96875 11.125 -1.03125 C 11.765625 -1.078125 12.515625 -0.984375 13.03125 -1.03125 C 13.53125 -1.078125 13.875 -1.25 13.828125 -1.8125 C 13.75 -2.625 12.828125 -2.171875 12.59375 -4.78125 L 12.21875 -8.859375 C 12.0625 -10.578125 11.359375 -12.46875 8.765625 -12.234375 C 6.421875 -12.015625 5.390625 -9.78125 5 -9.734375 C 4.921875 -9.734375 4.84375 -9.84375 4.828125 -10.109375 L 4.796875 -10.34375 C 4.71875 -11.15625 4.5 -11.84375 3.84375 -11.78125 C 3.109375 -11.703125 3.421875 -11.171875 1.671875 -10.34375 C 0.296875 -9.6875 -0.59375 -9.78125 -0.515625 -8.953125 C -0.4375 -8.234375 0.5 -8.484375 0.625 -7 C 0.6875 -6.328125 0.671875 -6.234375 0.90625 -3.703125 C 1.140625 -1.09375 0.15625 -1.375 0.234375 -0.5625 Z M 0.234375 -0.5625 "/></g></g></g><g fill="#19447d" fill-opacity="1"><g transform="translate(208.523313, 263.524747)"><g><path d="M -2.03125 -8.734375 C -1.859375 -8.03125 -0.96875 -8.4375 -0.59375 -7 L 0.28125 -3.6875 C 0.734375 -2.015625 1.75 -0.28125 4.28125 -0.953125 C 5.234375 -1.21875 6.34375 -2.0625 6.765625 -2.859375 C 7.03125 -3.328125 7.171875 -3.5625 7.3125 -3.59375 C 7.4375 -3.640625 7.515625 -3.359375 7.765625 -2.84375 C 8 -2.25 8.5625 -2.03125 9.21875 -2.265625 C 9.671875 -2.453125 10.03125 -2.640625 10.59375 -2.78125 C 11.21875 -2.953125 11.9375 -2.96875 12.46875 -3.109375 C 12.953125 -3.234375 13.265625 -3.46875 13.125 -4.015625 C 12.90625 -4.796875 12.078125 -4.203125 11.40625 -6.734375 C 11.234375 -7.390625 11.015625 -8.15625 10.359375 -10.625 L 9.765625 -12.796875 C 9.546875 -13.578125 9.203125 -14.21875 8.546875 -14.046875 C 7.84375 -13.84375 8.21875 -13.390625 6.671875 -12.28125 C 5.390625 -11.390625 4.515625 -11.34375 4.734375 -10.53125 C 4.90625 -9.859375 5.796875 -10.25 6.140625 -8.921875 L 6.484375 -7.625 C 7.109375 -5.3125 6.953125 -4.5625 6.125 -4.34375 C 5.28125 -4.109375 4.734375 -4.671875 4.125 -6.953125 L 3.765625 -8.28125 C 3.46875 -9.375 3.3125 -9.875 3 -11 C 2.78125 -11.78125 2.4375 -12.40625 1.78125 -12.234375 C 1.078125 -12.046875 1.46875 -11.578125 -0.09375 -10.484375 C -1.359375 -9.59375 -2.25 -9.546875 -2.03125 -8.734375 Z M -2.03125 -8.734375 "/></g></g></g><g fill="#19447d" fill-opacity="1"><g transform="translate(222.965463, 259.587127)"><g><path d="M 5.109375 2.875 C 5.625 2.640625 6.46875 2.453125 7.109375 2.171875 C 7.671875 1.90625 8.0625 1.578125 7.828125 1.0625 C 7.5 0.328125 6.765625 1.046875 5.6875 -1.34375 L 4.96875 -2.9375 C 4.796875 -3.3125 4.875 -3.375 5.28125 -3.203125 C 5.9375 -2.921875 6.859375 -2.921875 7.875 -3.375 C 13.515625 -5.9375 8.609375 -16.390625 3.375 -14.03125 C 0.953125 -12.921875 1.796875 -9.921875 1.15625 -11.328125 L 1.140625 -11.359375 C 0.8125 -12.09375 0.375 -12.65625 -0.234375 -12.390625 C -0.90625 -12.078125 -0.4375 -11.671875 -1.796875 -10.328125 C -2.90625 -9.25 -3.765625 -9.046875 -3.421875 -8.28125 C -3.125 -7.625 -2.3125 -8.171875 -1.703125 -6.8125 C -1.421875 -6.203125 0.53125 -1.8125 1.59375 0.515625 C 2.671875 2.90625 1.65625 2.984375 1.984375 3.71875 C 2.21875 4.234375 2.71875 4.15625 3.3125 3.890625 C 3.921875 3.609375 4.59375 3.109375 5.109375 2.875 Z M 3.078125 -10.40625 C 4.015625 -10.828125 5.078125 -9.703125 5.765625 -8.171875 C 6.453125 -6.65625 6.59375 -5.171875 5.65625 -4.75 C 4.75 -4.328125 3.703125 -5.375 3.015625 -6.90625 C 2.3125 -8.4375 2.171875 -9.984375 3.078125 -10.40625 Z M 3.078125 -10.40625 "/></g></g></g><g fill="#19447d" fill-opacity="1"><g transform="translate(235.916321, 253.397506)"><g/></g></g><g fill="#19447d" fill-opacity="1"><g transform="translate(150.206196, 145.771088)"><g><path d="M -3.640625 -5.5 C -1.296875 -2.515625 2.5 -1.75 5.671875 -4.234375 C 11.03125 -8.4375 8 -13.15625 5.875 -11.484375 C 3.984375 -10.015625 7.5 -7.484375 5.25 -5.71875 C 3.703125 -4.515625 1.5625 -6.109375 -0.125 -8.25 C -1.8125 -10.40625 -2.734375 -12.84375 -1.28125 -13.96875 C 0.734375 -15.546875 2.859375 -13.28125 4.0625 -14.21875 C 5.03125 -14.984375 3.109375 -16 1.046875 -17.203125 C 0.75 -17.390625 0.53125 -17.328125 0.3125 -17.15625 C -0.03125 -16.890625 -0.34375 -16.421875 -0.828125 -16.046875 C -1.4375 -15.5625 -1.828125 -15.46875 -2.625 -14.84375 C -5.6875 -12.453125 -5.96875 -8.484375 -3.640625 -5.5 Z M -3.640625 -5.5 "/></g></g></g><g fill="#19447d" fill-opacity="1"><g transform="translate(163.1281, 136.172153)"><g><path d="M 5.796875 -2.296875 C 9.015625 -3.671875 10.265625 -6.375 8.921875 -9.515625 C 7.59375 -12.65625 4.78125 -13.640625 1.5625 -12.265625 C -1.6875 -10.890625 -2.90625 -8.1875 -1.578125 -5.046875 C -0.234375 -1.90625 2.546875 -0.921875 5.796875 -2.296875 Z M 2.40625 -6.75 C 1.5625 -8.75 1.15625 -10.484375 2.140625 -10.90625 C 3.171875 -11.34375 4.078125 -9.8125 4.921875 -7.8125 C 5.78125 -5.796875 6.25 -4.078125 5.21875 -3.640625 C 4.234375 -3.21875 3.265625 -4.734375 2.40625 -6.75 Z M 2.40625 -6.75 "/></g></g></g><g fill="#19447d" fill-opacity="1"><g transform="translate(177.165326, 130.568934)"><g><path d="M 3.40625 -0.34375 C 5.0625 -0.59375 5.9375 -2.15625 6.5 -2.234375 C 6.703125 -2.265625 6.859375 -2.125 7 -1.59375 C 7.125 -1.046875 7.65625 -0.921875 8.203125 -1.09375 C 8.65625 -1.203125 9.03125 -1.328125 9.5625 -1.421875 C 10.09375 -1.5 10.78125 -1.4375 11.296875 -1.515625 C 11.78125 -1.578125 12.125 -1.765625 12.046875 -2.296875 C 11.9375 -3.046875 11.09375 -2.5625 10.734375 -5.015625 L 10.390625 -7.328125 C 9.84375 -11.015625 7.359375 -11.875 4.5 -11.453125 C 1.84375 -11.0625 -0.359375 -9.75 -0.09375 -8 C -0.015625 -7.390625 0.5625 -7 1.15625 -7.078125 C 2.921875 -7.34375 2.640625 -9.828125 4.546875 -10.109375 C 5.484375 -10.25 5.90625 -9.75 5.96875 -9.3125 C 6.046875 -8.734375 5.4375 -8.203125 4.171875 -7.703125 C 1.484375 -6.71875 -0.21875 -5.140625 0.125 -2.828125 C 0.359375 -1.21875 1.453125 -0.0625 3.40625 -0.34375 Z M 4 -4.484375 C 3.8125 -5.765625 4.828125 -6.28125 5.625 -6.875 C 6.015625 -7.15625 6.265625 -7.046875 6.34375 -6.59375 L 6.515625 -5.359375 C 6.671875 -4.34375 6.328125 -3.40625 5.46875 -3.28125 C 4.765625 -3.1875 4.140625 -3.484375 4 -4.484375 Z M 4 -4.484375 "/></g></g></g><g fill="#19447d" fill-opacity="1"><g transform="translate(192.263866, 128.757257)"><g><path d="M 0.78125 -2.46875 C 0.578125 -0.40625 3.734375 0.515625 5.1875 0.671875 C 7.84375 0.921875 10.578125 0.21875 10.84375 -2.453125 C 11.25 -6.640625 4.953125 -5.90625 5.140625 -7.875 C 5.1875 -8.3125 5.4375 -8.84375 6.375 -8.75 C 8.296875 -8.5625 8.140625 -6.078125 9.9375 -5.90625 C 10.515625 -5.859375 11.0625 -6.265625 11.125 -6.875 C 11.296875 -8.640625 9.015625 -9.84375 6.34375 -10.109375 C 5.03125 -10.234375 1.65625 -10.21875 1.359375 -7.140625 C 0.96875 -3.078125 7.265625 -3.046875 7.109375 -1.390625 C 7.046875 -0.703125 6.484375 -0.640625 5.5625 -0.734375 C 3.1875 -0.96875 3.375 -3.375 2.046875 -3.5 C 1.3125 -3.578125 0.84375 -3.171875 0.78125 -2.46875 Z M 0.78125 -2.46875 "/></g></g></g><g fill="#19447d" fill-opacity="1"><g transform="translate(206.102322, 130.611493)"><g><path d="M 3.15625 -9.375 C 2.953125 -8.71875 3.859375 -8.609375 3.453125 -7.28125 L 2.296875 -3.640625 C 1.546875 -1.1875 1.640625 0.671875 3.75 1.3125 C 5.5625 1.875 6.46875 1.15625 6.671875 0.5 C 6.828125 -0.046875 6.515625 0.109375 6.21875 -0.4375 C 5.875 -1.015625 6.171875 -1.84375 6.828125 -3.984375 L 7.734375 -6.921875 C 7.78125 -7.078125 7.953125 -7.15625 8.09375 -7.109375 L 8.5 -6.984375 C 8.875 -6.875 9.203125 -7.046875 9.328125 -7.453125 C 9.4375 -7.828125 9.265625 -8.15625 8.890625 -8.265625 L 8.484375 -8.390625 C 8.34375 -8.4375 8.25 -8.609375 8.296875 -8.765625 L 8.578125 -9.6875 C 8.8125 -10.421875 9.015625 -11.171875 8.40625 -11.359375 C 7.734375 -11.5625 7.4375 -10.546875 5.53125 -10.015625 C 4.109375 -9.625 3.375 -10.125 3.15625 -9.375 Z M 3.15625 -9.375 "/></g></g></g><g fill="#19447d" fill-opacity="1"><g transform="translate(215.417615, 133.475943)"><g><path d="M 2.90625 1.8125 C 4.390625 2.625 6.015625 1.90625 6.515625 2.1875 C 6.6875 2.28125 6.734375 2.484375 6.515625 3 C 6.28125 3.515625 6.625 3.921875 7.171875 4.140625 C 7.59375 4.328125 7.96875 4.453125 8.4375 4.71875 C 8.90625 4.96875 9.4375 5.453125 9.875 5.703125 C 10.296875 5.9375 10.6875 6 10.953125 5.53125 C 11.3125 4.859375 10.375 4.71875 11.578125 2.578125 L 12.71875 0.53125 C 14.53125 -2.734375 13.078125 -4.921875 10.546875 -6.328125 C 8.203125 -7.640625 5.671875 -7.9375 4.796875 -6.390625 C 4.5 -5.859375 4.71875 -5.203125 5.25 -4.90625 C 6.8125 -4.03125 8.078125 -6.171875 9.765625 -5.234375 C 10.59375 -4.765625 10.625 -4.125 10.40625 -3.734375 C 10.125 -3.21875 9.3125 -3.171875 8.015625 -3.5625 C 5.265625 -4.40625 2.96875 -4.203125 1.828125 -2.15625 C 1.03125 -0.75 1.1875 0.84375 2.90625 1.8125 Z M 5.90625 -1.125 C 6.546875 -2.25 7.671875 -2.03125 8.65625 -2.015625 C 9.125 -2 9.265625 -1.75 9.046875 -1.359375 L 8.4375 -0.265625 C 7.921875 0.640625 7.109375 1.15625 6.34375 0.734375 C 5.734375 0.390625 5.421875 -0.234375 5.90625 -1.125 Z M 5.90625 -1.125 "/></g></g></g><g fill="#19447d" fill-opacity="1"><g transform="translate(228.518061, 141.488955)"><g><path d="M 2.453125 2.15625 C 2.84375 2.484375 3.34375 3.140625 3.828125 3.5625 C 4.265625 3.953125 4.71875 4.171875 5.0625 3.765625 C 5.5625 3.1875 4.671875 2.859375 6.296875 1 L 13.078125 -6.765625 C 13.578125 -7.34375 13.890625 -7.953125 13.421875 -8.359375 C 12.90625 -8.8125 12.734375 -8.25 11.0625 -8.90625 C 9.703125 -9.421875 9.203125 -10.0625 8.6875 -9.484375 C 8.234375 -8.953125 9 -8.5 8.09375 -7.453125 C 7.671875 -6.984375 4.6875 -3.59375 3.109375 -1.78125 C 1.484375 0.078125 1.03125 -0.78125 0.53125 -0.203125 C 0.1875 0.203125 0.421875 0.59375 0.875 0.984375 C 1.359375 1.40625 2.0625 1.796875 2.453125 2.15625 Z M 2.453125 2.15625 "/></g></g></g></svg>